<?xml version="1.0" encoding="UTF-8" ?>
<!DOCTYPE svg PUBLIC "-//W3C//DTD SVG 1.1//EN" "http://www.w3.org/Graphics/SVG/1.1/DTD/svg11.dtd">
<svg width="800pt" height="600pt" viewBox="0 0 800 600" version="1.1" xmlns="http://www.w3.org/2000/svg">
<path fill="#ffffff" d=" M 0.00 0.00 L 800.00 0.00 L 800.00 600.00 L 0.00 600.00 L 0.00 0.00 Z" />
<path fill="#dbebbe" d=" M 182.09 106.09 C 219.39 105.84 256.70 106.07 294.00 105.99 C 306.40 106.09 318.80 105.79 331.20 106.10 C 317.27 120.86 302.53 134.83 288.33 149.32 C 259.15 178.47 229.99 207.65 200.82 236.81 C 194.50 242.86 188.73 249.47 182.11 255.19 C 181.83 221.47 182.07 187.73 181.99 154.00 C 182.09 138.03 181.81 122.06 182.09 106.09 Z" />
<path fill="#000000" d=" M 101.74 170.72 C 105.61 162.15 114.57 156.41 123.92 156.09 C 132.27 155.85 140.63 156.05 148.98 156.01 C 149.01 256.00 149.01 356.00 148.98 455.99 C 140.98 455.98 132.97 456.08 124.96 455.97 C 118.43 455.82 111.89 453.44 107.17 448.85 C 101.79 443.79 99.08 436.37 99.00 429.07 C 98.99 350.04 99.01 271.02 98.99 192.00 C 98.96 184.85 98.45 177.31 101.74 170.72 Z" />
<path fill="#000000" d=" M 372.02 156.01 C 388.67 155.99 405.33 155.99 421.98 156.01 C 422.01 256.00 422.01 355.99 421.98 455.98 C 405.33 456.01 388.67 456.01 372.01 455.98 C 371.99 355.99 371.99 256.00 372.02 156.01 Z" />
<path fill="#99c86c" d=" M 455.06 156.05 C 488.35 155.97 521.66 155.86 554.96 156.11 C 521.75 189.46 488.46 222.73 455.12 255.96 C 454.85 222.66 454.97 189.35 455.06 156.05 Z" />
<path fill="#000000" d=" M 643.02 156.02 C 651.02 156.02 659.03 155.92 667.04 156.03 C 673.57 156.17 680.11 158.56 684.84 163.15 C 690.21 168.22 692.92 175.63 693.00 182.94 C 693.02 264.63 692.97 346.33 693.02 428.03 C 693.08 434.72 691.14 441.57 686.79 446.75 C 682.01 452.61 674.52 455.84 667.03 455.97 C 659.02 456.08 651.02 455.98 643.02 455.99 C 642.99 356.00 642.99 256.01 643.02 156.02 Z" />
<path fill="#456534" d=" M 315.23 173.24 C 320.83 167.77 326.15 162.02 331.95 156.76 C 332.02 256.26 332.06 355.77 331.93 455.27 C 298.85 422.63 266.16 389.57 233.24 356.77 C 216.42 339.81 199.32 323.12 182.66 306.00 C 197.48 290.71 212.76 275.86 227.74 260.73 C 256.90 231.57 286.07 202.40 315.23 173.24 Z" />
<path fill="#456534" d=" M 539.23 222.23 C 561.18 200.44 582.84 178.36 604.93 156.72 C 605.06 256.23 605.02 355.74 604.95 455.24 C 580.14 430.99 555.85 406.21 531.24 381.76 C 506.08 356.47 480.65 331.45 455.66 306.00 C 483.31 277.87 511.43 250.21 539.23 222.23 Z" />
<path fill="#99c86c" d=" M 182.12 356.05 C 215.46 389.26 248.74 422.54 281.95 455.88 C 248.66 456.14 215.35 456.03 182.06 455.94 C 181.97 422.65 181.86 389.34 182.12 356.05 Z" />
<path fill="#dbebbe" d=" M 455.10 356.81 C 460.53 361.39 465.22 366.75 470.31 371.69 C 512.33 413.67 554.29 455.71 596.33 497.67 C 599.07 500.30 601.69 503.04 604.20 505.89 C 578.47 506.19 552.73 505.92 527.00 506.01 C 503.03 505.92 479.06 506.18 455.09 505.91 C 454.83 480.61 455.07 455.30 454.99 430.00 C 455.08 405.60 454.82 381.20 455.10 356.81 Z" />
</svg>
