<?xml version="1.0" encoding="UTF-8" ?>
<!DOCTYPE svg PUBLIC "-//W3C//DTD SVG 1.1//EN" "http://www.w3.org/Graphics/SVG/1.1/DTD/svg11.dtd">
<svg width="594pt" height="400pt" viewBox="0 0 594 400" version="1.1" xmlns="http://www.w3.org/2000/svg">
<path fill="#010101" d=" M 0.00 0.00 L 83.00 0.00 C 83.09 49.76 82.83 99.53 83.13 149.29 C 86.89 146.01 90.43 142.48 93.90 138.90 C 140.15 92.58 186.52 46.37 232.71 0.00 L 594.00 0.00 L 594.00 74.68 C 592.78 68.32 590.57 61.79 585.77 57.22 C 581.27 53.34 575.62 50.70 569.64 50.30 C 561.13 49.63 552.57 50.10 544.04 50.04 C 543.98 150.01 543.97 249.99 544.04 349.96 C 552.28 349.93 560.54 350.28 568.77 349.80 C 575.27 349.46 581.53 346.71 586.29 342.29 C 590.73 337.71 592.82 331.46 594.00 325.33 L 594.00 400.00 L 505.70 400.00 C 463.51 357.62 421.15 315.41 378.89 273.10 C 371.25 265.69 364.08 257.80 356.13 250.71 C 355.82 300.47 356.09 350.24 356.00 400.00 L 0.00 400.00 L 0.00 325.32 C 1.41 332.77 4.34 340.75 11.08 344.96 C 15.48 348.07 20.76 349.62 26.11 349.87 C 34.06 350.20 42.01 349.96 49.96 349.96 C 50.02 249.99 50.03 150.01 49.96 50.04 C 41.72 50.07 33.46 49.72 25.23 50.20 C 18.73 50.54 12.46 53.29 7.71 57.71 C 3.27 62.29 1.18 68.53 0.00 74.67 L 0.00 0.00 Z" />
<path fill="#99ca67" d=" M 83.00 0.00 L 232.71 0.00 C 186.52 46.37 140.15 92.58 93.90 138.90 C 90.43 142.48 86.89 146.01 83.13 149.29 C 82.83 99.53 83.09 49.76 83.00 0.00 Z" />
<path fill="#ffffff" d=" M 7.71 57.71 C 12.46 53.29 18.73 50.54 25.23 50.20 C 33.46 49.72 41.72 50.07 49.96 50.04 C 50.03 150.01 50.02 249.99 49.96 349.96 C 42.01 349.96 34.06 350.20 26.11 349.87 C 20.76 349.62 15.48 348.07 11.08 344.96 C 4.34 340.75 1.41 332.77 0.00 325.32 L 0.00 74.67 C 1.18 68.53 3.27 62.29 7.71 57.71 Z" />
<path fill="#ffffff" d=" M 273.02 50.03 C 289.67 49.98 306.32 49.98 322.97 50.03 C 323.02 150.01 323.01 249.99 322.98 349.98 C 306.33 350.02 289.67 350.02 273.02 349.97 C 272.98 249.99 272.98 150.01 273.02 50.03 Z" />
<path fill="#466436" d=" M 356.09 50.09 C 389.47 49.95 422.86 50.02 456.24 50.06 C 443.09 63.95 429.23 77.17 415.81 90.81 C 400.81 105.81 385.80 120.81 370.80 135.81 C 365.86 140.60 361.26 145.74 356.06 150.25 C 356.02 116.86 355.94 83.47 356.09 50.09 Z" />
<path fill="#ffffff" d=" M 544.04 50.04 C 552.57 50.10 561.13 49.63 569.64 50.30 C 575.62 50.70 581.27 53.34 585.77 57.22 C 590.57 61.79 592.78 68.32 594.00 74.68 L 594.00 325.33 C 592.82 331.46 590.73 337.71 586.29 342.29 C 581.53 346.71 575.27 349.46 568.77 349.80 C 560.54 350.28 552.28 349.93 544.04 349.96 C 543.97 249.99 543.98 150.01 544.04 50.04 Z" />
<path fill="#dcedbb" d=" M 222.65 60.65 C 226.01 57.26 229.31 53.81 232.92 50.68 C 233.11 103.12 232.94 155.56 233.00 208.00 C 232.94 255.11 233.12 302.23 232.91 349.33 C 217.55 334.63 202.79 319.30 187.65 304.36 C 159.81 276.52 131.99 248.68 104.14 220.85 C 97.31 213.86 90.16 207.17 83.51 200.00 C 101.67 181.34 120.31 163.14 138.65 144.65 C 166.65 116.65 194.65 88.65 222.65 60.65 Z" />
<path fill="#dcedbb" d=" M 468.15 88.15 C 480.79 75.70 493.05 62.87 505.91 50.66 C 506.12 101.77 505.94 152.89 506.00 204.00 C 505.94 252.44 506.11 300.88 505.92 349.32 C 494.20 338.31 483.12 326.62 471.65 315.35 C 439.15 282.85 406.65 250.35 374.15 217.85 C 368.30 211.87 362.16 206.17 356.51 200.00 C 393.51 162.50 430.97 125.46 468.15 88.15 Z" />
<path fill="#466436" d=" M 83.05 249.75 C 84.52 251.01 85.93 252.33 87.32 253.67 C 115.11 281.55 142.99 309.35 170.81 337.20 C 174.96 341.44 179.38 345.43 183.24 349.94 C 149.86 349.98 116.48 350.05 83.10 349.91 C 82.94 316.53 83.03 283.14 83.05 249.75 Z" />
<path fill="#99ca67" d=" M 356.13 250.71 C 364.08 257.80 371.25 265.69 378.89 273.10 C 421.15 315.41 463.51 357.62 505.70 400.00 L 356.00 400.00 C 356.09 350.24 355.82 300.47 356.13 250.71 Z" />
</svg>
